<svg width="48" height="48" viewBox="0 0 48 48" fill="none" xmlns="http://www.w3.org/2000/svg">
<circle cx="24" cy="24" r="24" fill="#252525"/>
<path d="M20.8365 34.0901H25.9011C25.7438 34.3439 25.5481 34.5746 25.3188 34.7731C24.7773 35.2419 24.0851 35.5 23.3688 35.5C22.6525 35.5 21.9603 35.2419 21.4188 34.7731C21.1895 34.5746 20.9938 34.3439 20.8365 34.0901ZM29.3992 14.9447C31.0114 16.5093 31.9522 18.6393 32.0231 20.8845V21.1588V22.1588H32.0276V25.8309V26.0181L32.0954 26.1927L33.7011 30.3306C33.7012 30.3309 33.7013 30.3312 33.7014 30.3315C33.7126 30.3607 33.7208 30.3905 33.7263 30.4218L33.7325 30.5204C33.7274 30.6248 33.6863 30.7245 33.616 30.8024C33.5451 30.881 33.449 30.9322 33.3447 30.9475L33.2557 30.9516H13.4555H13.4547C13.3847 30.9517 13.3156 30.9356 13.2529 30.9045C13.1902 30.8735 13.1355 30.8284 13.093 30.7727C13.0506 30.7171 13.0216 30.6524 13.0083 30.5836C12.9963 30.5217 12.9973 30.458 13.0113 30.3967L13.04 30.3117L14.6409 26.192L14.7088 26.0172V25.8298V21.16V21.1597C14.7086 20.0225 14.9324 18.8963 15.3675 17.8455C15.8026 16.7947 16.4404 15.84 17.2446 15.0358C18.0488 14.2316 19.0035 13.5937 20.0543 13.1586C21.1051 12.7235 22.2313 12.4997 23.3686 12.5H23.3689C25.6204 12.4998 27.7834 13.3767 29.3992 14.9447Z" stroke="#C3C3C3" stroke-width="2"/>
</svg>
