<svg width="28" height="28" viewBox="0 0 28 28" fill="none" xmlns="http://www.w3.org/2000/svg">
<path d="M9.70547 14.231L14.2321 9.70437M17.8535 13.3257L13.3268 17.8524M4.00397 18.2234C2.94814 17.1675 2.4208 16.6402 2.34614 15.995C2.32944 15.8516 2.32944 15.7068 2.34614 15.5634C2.4208 14.9194 2.94814 14.392 4.0028 13.3374C5.05864 12.2815 5.58597 11.7542 6.22997 11.6795C6.37464 11.6617 6.51853 11.6617 6.66164 11.6795C7.30681 11.7542 7.83414 12.2815 8.88997 13.3362L14.6626 19.1112C15.7185 20.1659 16.2458 20.6932 16.3205 21.3372C16.3384 21.4819 16.3384 21.6262 16.3205 21.77C16.2458 22.414 15.7185 22.9414 14.6638 23.996C13.608 25.0519 13.0806 25.5792 12.4366 25.6539C12.2932 25.6706 12.1484 25.6706 12.005 25.6539C11.3598 25.5792 10.8325 25.0519 9.77664 23.9972L4.00397 18.2234ZM13.3373 8.89004C12.2815 7.83421 11.7541 7.30687 11.6795 6.66171C11.6628 6.5183 11.6628 6.37345 11.6795 6.23004C11.7541 5.58604 12.2815 5.05871 13.3361 4.00404C14.392 2.94821 14.9193 2.42087 15.5633 2.34621C15.708 2.3291 15.8519 2.3291 15.995 2.34621C16.6401 2.42087 17.1675 2.94821 18.2233 4.00287L23.996 9.77787C25.0518 10.8325 25.5791 11.3599 25.6538 12.0039C25.6717 12.1478 25.6717 12.292 25.6538 12.4367C25.5791 13.0807 25.0518 13.608 23.9971 14.6627C22.9413 15.7185 22.414 16.2459 21.77 16.3205C21.6266 16.3372 21.4817 16.3372 21.3383 16.3205C20.6931 16.2459 20.1658 15.7185 19.11 14.6639L13.3373 8.89004Z" stroke="#81B4DD" stroke-width="2"/>
<path d="M21.0221 2.91443L24.6435 6.53576M2.91431 21.0223L6.53564 24.6436" stroke="#81B4DD" stroke-width="1.5" stroke-linecap="round" stroke-linejoin="round"/>
</svg>
