<svg width="28" height="28" viewBox="0 0 28 28" fill="none" xmlns="http://www.w3.org/2000/svg">
<path d="M21 3.5V9.33333M6.99998 3.5V9.33333M23.9166 4.66667V6.41667M23.9166 6.41667V8.16667M23.9166 6.41667H25.6666M4.08331 4.66667V6.41667M4.08331 6.41667V8.16667M4.08331 6.41667H2.33331M21 6.41667H6.99998M10.5 9.33333V18.6667M17.5 9.33333V18.6667M18.6666 22.1667V24.5M9.33331 22.1667V24.5M8.48981 22.1667H19.5113C20.9545 22.1667 21.6766 22.1667 21.9753 21.8132C22.652 21.0128 21.3546 19.9535 20.881 19.4203C20.3478 18.8183 19.957 18.6667 19.1683 18.6667H8.83165C8.04298 18.6667 7.65331 18.8183 7.11898 19.4203C6.64531 19.9535 5.34798 21.0128 6.02465 21.8132C6.32331 22.1667 7.04665 22.1667 8.48981 22.1667Z" stroke="#81B4DD" stroke-width="2" stroke-linecap="round" stroke-linejoin="round"/>
</svg>
