<svg width="23" height="24" viewBox="0 0 23 24" fill="none" xmlns="http://www.w3.org/2000/svg">
<g clip-path="url(#clip0_912_3744)">
<path d="M18.6875 9.84375C18.6875 11.9057 18.0182 13.8104 16.8906 15.3557L22.5777 21.0473C23.1393 21.6088 23.1393 22.5207 22.5777 23.0822C22.0162 23.6438 21.1043 23.6438 20.5428 23.0822L14.8557 17.3906C13.3104 18.5227 11.4057 19.1875 9.34375 19.1875C4.18223 19.1875 0 15.0053 0 9.84375C0 4.68223 4.18223 0.5 9.34375 0.5C14.5053 0.5 18.6875 4.68223 18.6875 9.84375ZM9.34375 16.3125C10.1932 16.3125 11.0344 16.1452 11.8192 15.8201C12.6041 15.495 13.3172 15.0185 13.9178 14.4178C14.5185 13.8172 14.995 13.1041 15.3201 12.3192C15.6452 11.5344 15.8125 10.6932 15.8125 9.84375C15.8125 8.99426 15.6452 8.15309 15.3201 7.36827C14.995 6.58344 14.5185 5.87033 13.9178 5.26965C13.3172 4.66897 12.6041 4.19249 11.8192 3.8674C11.0344 3.54232 10.1932 3.375 9.34375 3.375C8.49426 3.375 7.65309 3.54232 6.86827 3.8674C6.08344 4.19249 5.37033 4.66897 4.76965 5.26965C4.16897 5.87033 3.69249 6.58344 3.3674 7.36827C3.04232 8.15309 2.875 8.99426 2.875 9.84375C2.875 10.6932 3.04232 11.5344 3.3674 12.3192C3.69249 13.1041 4.16897 13.8172 4.76965 14.4178C5.37033 15.0185 6.08344 15.495 6.86827 15.8201C7.65309 16.1452 8.49426 16.3125 9.34375 16.3125Z" fill="#D9D9D9"/>
</g>
<defs>
<clipPath id="clip0_912_3744">
<rect width="23" height="23" fill="white" transform="translate(0 0.5)"/>
</clipPath>
</defs>
</svg>
