<svg width="24" height="24" viewBox="0 0 24 24" fill="none" xmlns="http://www.w3.org/2000/svg">
<path d="M12 3.00098C9.61306 3.00098 7.32388 3.94919 5.63605 5.63702C3.94822 7.32484 3.00001 9.61403 3.00001 12.001C3.00001 14.398 3.93501 16.574 5.46301 18.187L5.96701 18.719L4.70001 21.001H12C13.1819 21.001 14.3522 20.7682 15.4442 20.3159C16.5361 19.8636 17.5282 19.2007 18.364 18.3649C19.1997 17.5292 19.8626 16.5371 20.3149 15.4451C20.7672 14.3532 21 13.1829 21 12.001C21 10.8191 20.7672 9.64876 20.3149 8.55683C19.8626 7.4649 19.1997 6.47274 18.364 5.63702C17.5282 4.80129 16.5361 4.13835 15.4442 3.68606C14.3522 3.23377 13.1819 3.00098 12 3.00098ZM1.00001 12.001C1.00001 5.92598 5.92501 1.00098 12 1.00098C18.075 1.00098 23 5.92598 23 12.001C23 18.076 18.075 23.001 12 23.001H1.30001L3.52001 19.007C1.88821 17.0373 0.996743 14.5588 1.00001 12.001Z" fill="#EBEBEB"/>
</svg>
