<svg width="28" height="28" viewBox="0 0 28 28" fill="none" xmlns="http://www.w3.org/2000/svg">
<path d="M25.0834 15.1667C23.6524 14.5787 21 12.25 16.3334 15.75C15.1066 15.064 12.8334 13.4167 9.33335 16.3333C8.92444 14.6673 8.84277 10.8757 9.33335 7.58333C9.53752 7.09333 10.3799 6.74625 12.8334 9.33333L15.75 6.41667C15.5459 5.14267 14 3.5 9.33335 3.5C7.58335 3.5 5.98619 4.99625 5.25002 7.58333C4.3301 10.2288 2.91669 16.3333 2.91669 19.8333C2.91669 20.9113 4.37502 23.3333 9.91669 23.3333C11.0834 23.3333 14.4959 23.4646 18.6667 21.5833L22.1667 24.5" stroke="#81B4DD" stroke-width="2" stroke-linecap="round" stroke-linejoin="round"/>
</svg>
