<svg width="31" height="31" viewBox="0 0 31 31" fill="none" xmlns="http://www.w3.org/2000/svg">
<path d="M7.74998 4.68552C7.15148 5.1016 6.66263 5.65642 6.32522 6.30255C5.98782 6.94868 5.81189 7.66691 5.81248 8.39583C5.81232 9.17584 6.01397 9.94263 6.39784 10.6216C6.78171 11.3007 7.33473 11.8688 8.00315 12.2708M23.25 4.68552C23.8485 5.1016 24.3373 5.65642 24.6747 6.30255C25.0121 6.94868 25.1881 7.66691 25.1875 8.39583C25.1882 9.12487 25.0123 9.84322 24.6749 10.4895C24.3375 11.1357 23.8486 11.6906 23.25 12.1068M28.4166 27.125V26.35C28.4166 23.4567 28.4166 22.01 27.8535 20.9043C27.3581 19.9322 26.5678 19.1418 25.5956 18.6465M2.58331 27.125V26.35C2.58331 23.4567 2.58331 22.01 3.14648 20.9043C3.64182 19.9322 4.43219 19.1418 5.40431 18.6465M15.5 12.9167C16.0937 12.9167 16.6815 12.7997 17.23 12.5725C17.7785 12.3453 18.2769 12.0123 18.6967 11.5925C19.1165 11.1727 19.4495 10.6744 19.6767 10.1259C19.9039 9.57739 20.0208 8.98952 20.0208 8.39583C20.0208 7.80215 19.9039 7.21428 19.6767 6.66579C19.4495 6.11729 19.1165 5.61892 18.6967 5.19912C18.2769 4.77932 17.7785 4.44632 17.23 4.21913C16.6815 3.99193 16.0937 3.875 15.5 3.875C14.301 3.875 13.1511 4.3513 12.3033 5.19912C11.4554 6.04694 10.9791 7.19683 10.9791 8.39583C10.9791 9.59483 11.4554 10.7447 12.3033 11.5925C13.1511 12.4404 14.301 12.9167 15.5 12.9167ZM7.74998 25.8333V27.125H23.25V25.8333C23.25 23.4263 23.25 22.2225 22.8567 21.2725C22.3321 20.0066 21.3262 19.0009 20.0602 18.4766C19.1115 18.0833 17.9076 18.0833 15.5 18.0833C13.0923 18.0833 11.8891 18.0833 10.9398 18.4766C10.3128 18.7363 9.74319 19.1169 9.26337 19.5967C8.78355 20.0765 8.40294 20.6462 8.14329 21.2731C7.74998 22.2225 7.74998 23.4263 7.74998 25.8333Z" stroke="#81B4DD" stroke-width="2.58333" stroke-linecap="round" stroke-linejoin="round"/>
</svg>
