<svg width="28" height="28" viewBox="0 0 28 28" fill="none" xmlns="http://www.w3.org/2000/svg">
<path d="M8.74995 4.0835C6.93461 4.13833 5.85311 4.34016 5.10411 5.08916C4.07861 6.11583 4.07861 7.76666 4.07861 11.0695V18.6598C4.07861 21.9638 4.07861 23.6147 5.10411 24.6413C6.12845 25.6668 7.77928 25.6668 11.0786 25.6668H16.9119C20.2124 25.6668 21.8621 25.6668 22.8864 24.6402C23.9131 23.6147 23.9131 21.9638 23.9131 18.6598V11.0695C23.9131 7.76783 23.9131 6.11583 22.8864 5.08916C22.1386 4.34016 21.0559 4.13833 19.2406 4.0835" stroke="#81B4DD" stroke-width="1.75" stroke-linecap="round" stroke-linejoin="round"/>
<path d="M15.75 12.8335H19.8334M8.16669 14.0002C8.16669 14.0002 8.75002 14.0002 9.33335 15.1668C9.33335 15.1668 11.186 12.2502 12.8334 11.6668M15.75 19.8335H19.8334M9.33335 19.8335H10.5M8.74535 4.37516C8.74535 3.24816 9.66002 2.3335 10.787 2.3335H17.2037C17.7452 2.3335 18.2645 2.5486 18.6474 2.93149C19.0303 3.31437 19.2454 3.83368 19.2454 4.37516C19.2454 4.91665 19.0303 5.43595 18.6474 5.81884C18.2645 6.20173 17.7452 6.41683 17.2037 6.41683H10.787C10.2455 6.41683 9.72623 6.20173 9.34334 5.81884C8.96046 5.43595 8.74535 4.91665 8.74535 4.37516Z" stroke="#81B4DD" stroke-width="1.75" stroke-linecap="round" stroke-linejoin="round"/>
</svg>
