<svg width="43" height="43" viewBox="0 0 43 43" fill="none" xmlns="http://www.w3.org/2000/svg">
<circle cx="21.5" cy="21.5" r="21.5" fill="#252525"/>
<g clip-path="url(#clip0_348_3819)">
<path d="M12.9803 30.9917C12.9803 31.6354 13.236 32.2527 13.6911 32.7079C14.1463 33.163 14.7636 33.4187 15.4073 33.4187H27.5424C28.1861 33.4187 28.8034 33.163 29.2586 32.7079C29.7138 32.2527 29.9695 31.6354 29.9695 30.9917V16.4295H32.3965V14.0025H27.5424V11.5755C27.5424 10.9318 27.2867 10.3145 26.8316 9.8593C26.3764 9.40414 25.7591 9.14844 25.1154 9.14844H17.8343C17.1906 9.14844 16.5733 9.40414 16.1181 9.8593C15.663 10.3145 15.4073 10.9318 15.4073 11.5755V14.0025H10.5532V16.4295H12.9803V30.9917ZM17.8343 11.5755H25.1154V14.0025H17.8343V11.5755ZM16.6208 16.4295H27.5424V30.9917H15.4073V16.4295H16.6208Z" fill="#B3B3B3"/>
<path d="M17.834 18.8574H20.261V28.5655H17.834V18.8574ZM22.688 18.8574H25.1151V28.5655H22.688V18.8574Z" fill="#B3B3B3"/>
</g>
<defs>
<clipPath id="clip0_348_3819">
<rect width="32" height="32" fill="white" transform="translate(4 3.80957)"/>
</clipPath>
</defs>
</svg>
