<svg width="40" height="40" viewBox="0 0 40 40" fill="none" xmlns="http://www.w3.org/2000/svg">
<path d="M5.00016 13.3333H35.0002C35.4422 13.3333 35.8661 13.1577 36.1787 12.8452C36.4912 12.5326 36.6668 12.1087 36.6668 11.6667C36.6668 11.2246 36.4912 10.8007 36.1787 10.4882C35.8661 10.1756 35.4422 10 35.0002 10H5.00016C4.55814 10 4.13421 10.1756 3.82165 10.4882C3.50909 10.8007 3.3335 11.2246 3.3335 11.6667C3.3335 12.1087 3.50909 12.5326 3.82165 12.8452C4.13421 13.1577 4.55814 13.3333 5.00016 13.3333ZM35.0002 26.6667H5.00016C4.55814 26.6667 4.13421 26.8423 3.82165 27.1548C3.50909 27.4674 3.3335 27.8913 3.3335 28.3333C3.3335 28.7754 3.50909 29.1993 3.82165 29.5118C4.13421 29.8244 4.55814 30 5.00016 30H35.0002C35.4422 30 35.8661 29.8244 36.1787 29.5118C36.4912 29.1993 36.6668 28.7754 36.6668 28.3333C36.6668 27.8913 36.4912 27.4674 36.1787 27.1548C35.8661 26.8423 35.4422 26.6667 35.0002 26.6667ZM35.0002 18.3333H5.00016C4.55814 18.3333 4.13421 18.5089 3.82165 18.8215C3.50909 19.134 3.3335 19.558 3.3335 20C3.3335 20.442 3.50909 20.8659 3.82165 21.1785C4.13421 21.4911 4.55814 21.6667 5.00016 21.6667H35.0002C35.4422 21.6667 35.8661 21.4911 36.1787 21.1785C36.4912 20.8659 36.6668 20.442 36.6668 20C36.6668 19.558 36.4912 19.134 36.1787 18.8215C35.8661 18.5089 35.4422 18.3333 35.0002 18.3333Z" fill="#525252"/>
</svg>
