<svg width="40" height="40" viewBox="0 0 40 40" fill="none" xmlns="http://www.w3.org/2000/svg">
<path fill-rule="evenodd" clip-rule="evenodd" d="M19.9999 22.3566L29.4282 31.7849C29.7425 32.0885 30.1635 32.2565 30.6005 32.2527C31.0375 32.2489 31.4556 32.0736 31.7646 31.7646C32.0736 31.4556 32.2489 31.0376 32.2527 30.6006C32.2565 30.1636 32.0885 29.7426 31.7849 29.4283L22.3565 19.9999L31.7849 10.5716C32.0885 10.2573 32.2565 9.83625 32.2527 9.39925C32.2489 8.96226 32.0736 8.54424 31.7646 8.23523C31.4556 7.92621 31.0375 7.75093 30.6005 7.74713C30.1635 7.74334 29.7425 7.91133 29.4282 8.21492L19.9999 17.6433L10.5715 8.21492C10.2558 7.91883 9.83722 7.7572 9.40442 7.76423C8.97161 7.77126 8.55852 7.94639 8.25255 8.25258C7.94658 8.55877 7.77173 8.97198 7.76501 9.40479C7.75829 9.8376 7.92022 10.256 8.21653 10.5716L17.6432 19.9999L8.21487 29.4283C8.05568 29.582 7.92871 29.7659 7.84137 29.9693C7.75402 30.1726 7.70804 30.3913 7.70612 30.6126C7.70419 30.8339 7.74636 31.0534 7.83017 31.2582C7.91397 31.463 8.03772 31.6491 8.19421 31.8056C8.3507 31.9621 8.53678 32.0858 8.74161 32.1696C8.94644 32.2534 9.1659 32.2956 9.3872 32.2937C9.6085 32.2918 9.8272 32.2458 10.0305 32.1584C10.2339 32.0711 10.4178 31.9441 10.5715 31.7849L19.9999 22.3566Z" fill="#F5F5F5"/>
</svg>
