<svg width="20" height="18" viewBox="0 0 20 18" fill="none" xmlns="http://www.w3.org/2000/svg">
<path d="M9.33134 3.28269L10 4.59891L10.6687 3.28269C11.4383 1.76772 12.9568 0.75 14.696 0.75C17.1892 0.75 19.25 2.83929 19.25 5.481C19.25 8.22478 17.8683 10.6148 15.3215 13.0074L15.3214 13.0075C14.1261 14.1309 12.6981 15.2201 11.5586 16.0341C10.991 16.4396 10.4993 16.7738 10.1501 17.0062C10.0955 17.0426 10.0443 17.0764 9.99698 17.1077C9.94569 17.0743 9.89003 17.038 9.83034 16.9987C9.47268 16.7637 8.971 16.4265 8.39703 16.0192C7.24361 15.2007 5.82071 14.1149 4.68713 13.0156C2.39421 10.792 0.75 8.20348 0.75 5.481C0.75 2.84747 2.81156 0.75 5.304 0.75C7.04316 0.75 8.56171 1.76772 9.33134 3.28269Z" fill="#E43636" stroke="#E43636" stroke-width="1.5"/>
</svg>
