<svg width="22" height="22" viewBox="0 0 22 22" fill="none" xmlns="http://www.w3.org/2000/svg">
<path d="M11 2C8.61306 2 6.32388 2.94821 4.63605 4.63604C2.94822 6.32387 2.00001 8.61305 2.00001 11C2.00001 13.397 2.93501 15.573 4.46301 17.186L4.96701 17.718L3.70001 20H11C12.1819 20 13.3522 19.7672 14.4442 19.3149C15.5361 18.8626 16.5282 18.1997 17.364 17.364C18.1997 16.5282 18.8626 15.5361 19.3149 14.4442C19.7672 13.3522 20 12.1819 20 11C20 9.8181 19.7672 8.64778 19.3149 7.55585C18.8626 6.46392 18.1997 5.47177 17.364 4.63604C16.5282 3.80031 15.5361 3.13738 14.4442 2.68508C13.3522 2.23279 12.1819 2 11 2ZM8.9415e-06 11C8.9415e-06 4.925 4.92501 0 11 0C17.075 0 22 4.925 22 11C22 17.075 17.075 22 11 22H0.300009L2.52001 18.006C0.888214 16.0363 -0.00325693 13.5578 8.9415e-06 11Z" fill="white"/>
</svg>
