<svg width="48" height="48" viewBox="0 0 48 48" fill="none" xmlns="http://www.w3.org/2000/svg">
<path d="M16.638 24.396L24.398 16.636M30.606 22.844L22.846 30.604M6.86401 31.24C5.05401 29.43 4.15001 28.526 4.02201 27.42C3.9934 27.1742 3.9934 26.9258 4.02201 26.68C4.15001 25.576 5.05401 24.672 6.86201 22.864C8.67201 21.054 9.57601 20.15 10.68 20.022C10.928 19.9913 11.1747 19.9913 11.42 20.022C12.526 20.15 13.43 21.054 15.24 22.862L25.136 32.762C26.946 34.57 27.85 35.474 27.978 36.578C28.0087 36.826 28.0087 37.0733 27.978 37.32C27.85 38.424 26.946 39.328 25.138 41.136C23.328 42.946 22.424 43.85 21.32 43.978C21.0742 44.0066 20.8258 44.0066 20.58 43.978C19.474 43.85 18.57 42.946 16.76 41.138L6.86401 31.24ZM22.864 15.24C21.054 13.43 20.15 12.526 20.022 11.42C19.9934 11.1742 19.9934 10.9258 20.022 10.68C20.15 9.576 21.054 8.672 22.862 6.864C24.672 5.054 25.576 4.15 26.68 4.022C26.928 3.99267 27.1747 3.99267 27.42 4.022C28.526 4.15 29.43 5.054 31.24 6.862L41.136 16.762C42.946 18.57 43.85 19.474 43.978 20.578C44.0087 20.8247 44.0087 21.072 43.978 21.32C43.85 22.424 42.946 23.328 41.138 25.136C39.328 26.946 38.424 27.85 37.32 27.978C37.0742 28.0066 36.8258 28.0066 36.58 27.978C35.474 27.85 34.57 26.946 32.76 25.138L22.864 15.24Z" stroke="#3B6CB4" stroke-width="2"/>
<path d="M36.038 4.99609L42.246 11.2041M4.99603 36.0381L11.204 42.2461" stroke="#3B6CB4" stroke-width="1.5" stroke-linecap="round" stroke-linejoin="round"/>
</svg>
