<svg width="22" height="22" viewBox="0 0 22 22" fill="none" xmlns="http://www.w3.org/2000/svg">
<path d="M11.11 18.643L11 18.7629L10.879 18.643C5.654 13.4757 2.2 10.0589 2.2 6.594C2.2 4.19618 3.85 2.39782 6.05 2.39782C7.744 2.39782 9.394 3.59673 9.977 5.22725H12.023C12.606 3.59673 14.256 2.39782 15.95 2.39782C18.15 2.39782 19.8 4.19618 19.8 6.594C19.8 10.0589 16.346 13.4757 11.11 18.643ZM15.95 0C14.036 0 12.199 0.971117 11 2.49373C9.801 0.971117 7.964 0 6.05 0C2.662 0 0 2.88937 0 6.594C0 11.1139 3.74 14.8185 9.405 20.4174L11 22L12.595 20.4174C18.26 14.8185 22 11.1139 22 6.594C22 2.88937 19.338 0 15.95 0Z" fill="#E50000"/>
</svg>
