<svg width="79" height="49" viewBox="0 0 79 49" fill="none" xmlns="http://www.w3.org/2000/svg">
<path d="M7.06663 20.36H0.946625V3.8C0.946625 1.85 2.41663 0.829999 4.00663 0.829999C5.56663 0.829999 7.06663 1.88 7.06663 3.8V20.36ZM0.796625 24.8C0.796625 22.94 1.99663 21.77 4.00663 21.77C6.01663 21.77 7.21663 22.97 7.21663 24.8C7.21663 26.63 6.01663 27.83 4.00663 27.83C1.99663 27.83 0.796625 26.66 0.796625 24.8ZM10.159 18.95V9.98C10.159 3.08 15.709 0.829999 20.209 0.829999C24.619 0.829999 30.259 3.08 30.259 9.98V18.95C30.259 25.85 24.619 28.1 20.209 28.1C15.799 28.1 10.159 25.85 10.159 18.95ZM24.139 19.13V9.8C24.139 7.16 22.399 5.96 20.209 5.96C18.019 5.96 16.279 7.16 16.279 9.8V19.13C16.279 21.53 18.019 22.97 20.209 22.97C22.399 22.97 24.139 21.53 24.139 19.13Z" fill="#AC265C"/>
<path d="M44.5327 17.5374H36.4498C33.9905 17.5374 32.6163 16.145 32.6163 14.1378V13.9751C32.6163 11.9679 33.9905 10.5756 36.4498 10.5756H44.5327C46.9919 10.5756 48.3843 11.9679 48.3843 13.9751V14.1378C48.3843 16.145 46.9919 17.5374 44.5327 17.5374ZM36.3232 13.9751V14.1559C36.3232 14.6622 36.7029 15.0239 37.3901 15.0239H43.5924C44.2795 15.0239 44.6773 14.6622 44.6773 14.1559V13.9751C44.6773 13.4688 44.2795 13.089 43.5924 13.089H37.3901C36.7029 13.089 36.3232 13.4688 36.3232 13.9751ZM33.5385 18.3511H47.462C48.5289 18.3511 48.9629 19.0563 48.9629 19.7977C48.9629 20.5571 48.5108 21.2262 47.462 21.2262H42.5255V23.5769H38.8367V21.2262H33.5385C32.4897 21.2262 32.0376 20.5571 32.0376 19.7977C32.0376 19.0563 32.4716 18.3511 33.5385 18.3511ZM37.1369 24.5896H46.8834C47.9864 24.5896 48.4023 25.2586 48.4023 25.9819C48.4023 26.7233 47.9684 27.3743 46.8834 27.3743H35.5275C33.4842 27.3743 32.9417 26.7052 32.9417 24.7885V23.5227C32.9417 22.3112 33.8097 21.8591 34.8223 21.8591C35.835 21.8591 36.6487 22.3292 36.6487 23.5227V24.1556C36.6487 24.5353 36.7391 24.5896 37.1369 24.5896ZM66.0871 14.9154H66.6476C67.7507 14.9154 68.0762 15.7653 68.0762 16.4886C68.0762 17.23 67.7326 18.0618 66.6476 18.0618H66.0871V23.2153H62.561V12.1307C62.561 11.0095 63.3747 10.3947 64.3331 10.3947C65.2915 10.3947 66.0871 11.0095 66.0871 12.1307V14.9154ZM60.4634 21.4432H51.5849C50.5722 21.4432 50.1202 20.8284 50.1202 20.0689C50.1202 19.3275 50.5542 18.6585 51.5849 18.6585H54.0803V17.5374H53.9718C51.7114 17.5374 50.4999 16.0727 50.4999 14.1921V14.1378C50.4999 12.2572 51.7114 10.7926 53.9718 10.7926H57.8414C60.0837 10.7926 61.259 12.2572 61.259 14.1378V14.1921C61.259 16.0727 60.0837 17.5374 57.8414 17.5374H57.4979V18.6585H60.4634C61.4941 18.6585 61.9281 19.3275 61.9281 20.0689C61.9281 20.8284 61.476 21.4432 60.4634 21.4432ZM53.8994 14.1378V14.1921C53.8994 14.7707 54.2611 15.0962 54.9121 15.0962H56.8831C57.516 15.0962 57.8595 14.7707 57.8595 14.1921V14.1378C57.8595 13.5773 57.516 13.2156 56.8831 13.2156H54.9121C54.2611 13.2156 53.8994 13.5773 53.8994 14.1378ZM55.5269 24.6076H65.201C66.2498 24.6076 66.6657 25.2586 66.6657 25.9819C66.6657 26.7233 66.2318 27.3743 65.201 27.3743H54.0983C52.0731 27.3743 51.5306 26.6691 51.5306 24.7342V23.6312C51.5306 22.5643 52.3805 22.0038 53.3931 22.0038C54.4057 22.0038 55.2014 22.5824 55.2014 23.6312V24.3002C55.2014 24.5534 55.2737 24.6076 55.5269 24.6076ZM74.7667 22.4739H71.114V20.955C71.114 19.5626 71.331 18.7127 72.3437 18.116C73.1393 17.6459 73.7903 17.2661 74.17 16.9225C74.7486 16.3982 74.8933 16.0003 74.8933 15.3855C74.8933 14.5537 74.2242 14.0293 73.4105 14.0293C72.5787 14.0293 71.8373 14.4452 71.6204 15.1866C71.3672 16.0546 70.6077 16.5428 69.6132 16.4705C68.7814 16.4162 68.04 15.8557 68.0762 14.7346C68.1485 12.5285 70.5173 10.8287 73.4105 10.8287C76.4122 10.8287 78.5821 12.2934 78.5821 15.3855C78.5821 16.5971 78.3109 17.465 77.6599 18.2245C77.1175 18.8574 76.2495 19.4903 75.3634 20.0689C74.8571 20.4125 74.7667 20.7741 74.7667 21.2443V22.4739ZM71.0055 25.2767C71.0055 24.1556 71.7289 23.4504 72.9404 23.4504C74.1519 23.4504 74.8752 24.1737 74.8752 25.2767C74.8752 26.3797 74.1519 27.103 72.9404 27.103C71.7289 27.103 71.0055 26.3978 71.0055 25.2767ZM14.8598 42.7506V37.3439C14.8598 33.1849 18.205 31.8287 20.9174 31.8287C23.5756 31.8287 26.9751 33.1849 26.9751 37.3439V42.7506C26.9751 46.9096 23.5756 48.2658 20.9174 48.2658C18.2593 48.2658 14.8598 46.9096 14.8598 42.7506ZM23.2862 42.8591V37.2354C23.2862 35.6441 22.2375 34.9208 20.9174 34.9208C19.5974 34.9208 18.5486 35.6441 18.5486 37.2354V42.8591C18.5486 44.3057 19.5974 45.1737 20.9174 45.1737C22.2375 45.1737 23.2862 44.3057 23.2862 42.8591ZM40.7721 38.5374H32.6892C30.23 38.5374 28.8557 37.145 28.8557 35.1378V34.9751C28.8557 32.9679 30.23 31.5756 32.6892 31.5756H40.7721C43.2313 31.5756 44.6237 32.9679 44.6237 34.9751V35.1378C44.6237 37.145 43.2313 38.5374 40.7721 38.5374ZM32.5626 34.9751V35.1559C32.5626 35.6622 32.9423 36.0239 33.6295 36.0239H39.8318C40.5189 36.0239 40.9168 35.6622 40.9168 35.1559V34.9751C40.9168 34.4688 40.5189 34.089 39.8318 34.089H33.6295C32.9423 34.089 32.5626 34.4688 32.5626 34.9751ZM29.7779 39.3511H43.7015C44.7683 39.3511 45.2023 40.0563 45.2023 40.7977C45.2023 41.5571 44.7503 42.2262 43.7015 42.2262H38.7649V44.5769H35.0761V42.2262H29.7779C28.7291 42.2262 28.277 41.5571 28.277 40.7977C28.277 40.0563 28.711 39.3511 29.7779 39.3511ZM33.3763 45.5896H43.1228C44.2259 45.5896 44.6418 46.2586 44.6418 46.9819C44.6418 47.7233 44.2078 48.3743 43.1228 48.3743H31.767C29.7236 48.3743 29.1812 47.7052 29.1812 45.7885V44.5227C29.1812 43.3112 30.0491 42.8591 31.0618 42.8591C32.0744 42.8591 32.8881 43.3292 32.8881 44.5227V45.1556C32.8881 45.5353 32.9785 45.5896 33.3763 45.5896ZM62.3265 35.9154H62.8871C63.9901 35.9154 64.3156 36.7653 64.3156 37.4886C64.3156 38.23 63.972 39.0618 62.8871 39.0618H62.3265V44.2153H58.8004V33.1307C58.8004 32.0095 59.6141 31.3947 60.5725 31.3947C61.5309 31.3947 62.3265 32.0095 62.3265 33.1307V35.9154ZM56.7028 42.4432H47.8243C46.8117 42.4432 46.3596 41.8284 46.3596 41.0689C46.3596 40.3275 46.7936 39.6585 47.8243 39.6585H50.3197V38.5374H50.2112C47.9509 38.5374 46.7393 37.0727 46.7393 35.1921V35.1378C46.7393 33.2572 47.9509 31.7926 50.2112 31.7926H54.0809C56.3231 31.7926 57.4985 33.2572 57.4985 35.1378V35.1921C57.4985 37.0727 56.3231 38.5374 54.0809 38.5374H53.7373V39.6585H56.7028C57.7335 39.6585 58.1675 40.3275 58.1675 41.0689C58.1675 41.8284 57.7155 42.4432 56.7028 42.4432ZM50.1389 35.1378V35.1921C50.1389 35.7707 50.5005 36.0962 51.1515 36.0962H53.1225C53.7554 36.0962 54.0989 35.7707 54.0989 35.1921V35.1378C54.0989 34.5773 53.7554 34.2156 53.1225 34.2156H51.1515C50.5005 34.2156 50.1389 34.5773 50.1389 35.1378ZM51.7663 45.6076H61.4405C62.4893 45.6076 62.9052 46.2586 62.9052 46.9819C62.9052 47.7233 62.4712 48.3743 61.4405 48.3743H50.3378C48.3125 48.3743 47.77 47.6691 47.77 45.7342V44.6312C47.77 43.5643 48.6199 43.0038 49.6326 43.0038C50.6452 43.0038 51.4408 43.5824 51.4408 44.6312V45.3002C51.4408 45.5534 51.5131 45.6076 51.7663 45.6076Z" fill="#265CAC"/>
</svg>
