<svg width="23" height="26" viewBox="0 0 23 26" fill="none" xmlns="http://www.w3.org/2000/svg">
<path d="M8.83654 23.0901H13.9011C13.7438 23.3439 13.5481 23.5746 13.3188 23.7731C12.7773 24.2419 12.0851 24.5 11.3688 24.5C10.6525 24.5 9.96027 24.2419 9.41879 23.7731C9.18954 23.5746 8.99381 23.3439 8.83654 23.0901ZM17.3992 3.94471C19.0114 5.50935 19.9522 7.6393 20.0231 9.88447V10.1588V11.1588H20.0276V14.8309V15.0181L20.0954 15.1927L21.7011 19.3306C21.7012 19.3309 21.7013 19.3312 21.7014 19.3315C21.7126 19.3608 21.7208 19.3905 21.7263 19.4218L21.7325 19.5204C21.7274 19.6248 21.6863 19.7245 21.616 19.8024L22.3583 20.4725L21.616 19.8024C21.5451 19.881 21.449 19.9322 21.3447 19.9475L21.2557 19.9516H1.45545H1.45469C1.3847 19.9517 1.31564 19.9356 1.2529 19.9045C1.19017 19.8735 1.13545 19.8284 1.09302 19.7727L0.297757 20.379L1.09302 19.7727C1.05059 19.7171 1.02159 19.6524 1.00828 19.5836C0.996294 19.5217 0.997344 19.458 1.01128 19.3967L1.04004 19.3118L2.64093 15.192L2.70883 15.0172V14.8298V10.16V10.1597C2.70856 9.02246 2.93237 7.89626 3.36746 6.84549C3.80256 5.79472 4.44042 4.83997 5.24461 4.03578C6.04879 3.2316 7.00354 2.59374 8.05431 2.15864C9.10508 1.72354 10.2313 1.49973 11.3686 1.5H11.3689C13.6204 1.49979 15.7834 2.37669 17.3992 3.94471Z" stroke="#434343" stroke-width="2"/>
</svg>
