<svg width="48" height="48" viewBox="0 0 48 48" fill="none" xmlns="http://www.w3.org/2000/svg">
<path d="M15 7C11.888 7.094 10.034 7.44 8.75 8.724C6.992 10.484 6.992 13.314 6.992 18.976V31.988C6.992 37.652 6.992 40.482 8.75 42.242C10.506 44 13.336 44 18.992 44H28.992C34.65 44 37.478 44 39.234 42.24C40.994 40.482 40.994 37.652 40.994 31.988V18.976C40.994 13.316 40.994 10.484 39.234 8.724C37.952 7.44 36.096 7.094 32.984 7" stroke="#3B6CB4" stroke-width="3" stroke-linecap="round" stroke-linejoin="round"/>
<path d="M27 22H34M14 24C14 24 15 24 16 26C16 26 19.176 21 22 20M27 34H34M16 34H18M14.992 7.5C14.992 5.568 16.56 4 18.492 4H29.492C30.4203 4 31.3105 4.36875 31.9669 5.02513C32.6233 5.6815 32.992 6.57174 32.992 7.5C32.992 8.42826 32.6233 9.3185 31.9669 9.97487C31.3105 10.6313 30.4203 11 29.492 11H18.492C17.5637 11 16.6735 10.6313 16.0171 9.97487C15.3607 9.3185 14.992 8.42826 14.992 7.5Z" stroke="#3B6CB4" stroke-width="4" stroke-linecap="round" stroke-linejoin="round"/>
</svg>
