<svg width="43" height="44" viewBox="0 0 43 44" fill="none" xmlns="http://www.w3.org/2000/svg">
<circle cx="21.5" cy="21.6895" r="21.5" fill="#FBFBFB"/>
<g clip-path="url(#clip0_348_3819)">
<path d="M12.9803 31.1831C12.9803 31.8268 13.236 32.4441 13.6911 32.8993C14.1463 33.3544 14.7636 33.6101 15.4073 33.6101H27.5424C28.1861 33.6101 28.8034 33.3544 29.2586 32.8993C29.7138 32.4441 29.9695 31.8268 29.9695 31.1831V16.6209H32.3965V14.1939H27.5424V11.7669C27.5424 11.1232 27.2867 10.5059 26.8316 10.0507C26.3764 9.59555 25.7591 9.33984 25.1154 9.33984H17.8343C17.1906 9.33984 16.5733 9.59555 16.1181 10.0507C15.663 10.5059 15.4073 11.1232 15.4073 11.7669V14.1939H10.5532V16.6209H12.9803V31.1831ZM17.8343 11.7669H25.1154V14.1939H17.8343V11.7669ZM16.6208 16.6209H27.5424V31.1831H15.4073V16.6209H16.6208Z" fill="#E1E1E1"/>
<path d="M17.834 19.0469H20.261V28.755H17.834V19.0469ZM22.688 19.0469H25.1151V28.755H22.688V19.0469Z" fill="#E1E1E1"/>
</g>
<defs>
<clipPath id="clip0_348_3819">
<rect width="32" height="32" fill="white" transform="translate(4 4)"/>
</clipPath>
</defs>
</svg>
