<svg width="31" height="31" viewBox="0 0 31 31" fill="none" xmlns="http://www.w3.org/2000/svg">
<path d="M7.75004 4.68552C7.15154 5.1016 6.66269 5.65642 6.32528 6.30255C5.98788 6.94868 5.81195 7.66691 5.81254 8.39583C5.81238 9.17584 6.01403 9.94263 6.3979 10.6216C6.78177 11.3007 7.33479 11.8688 8.00321 12.2708M23.25 4.68552C23.8485 5.1016 24.3374 5.65642 24.6748 6.30255C25.0122 6.94868 25.1881 7.66691 25.1875 8.39583C25.1882 9.12487 25.0124 9.84322 24.6749 10.4895C24.3375 11.1357 23.8486 11.6906 23.25 12.1068M28.4167 27.125V26.35C28.4167 23.4567 28.4167 22.01 27.8535 20.9043C27.3582 19.9322 26.5678 19.1418 25.5957 18.6465M2.58337 27.125V26.35C2.58337 23.4567 2.58337 22.01 3.14654 20.9043C3.64188 19.9322 4.43225 19.1418 5.40437 18.6465M15.5 12.9167C16.0937 12.9167 16.6816 12.7997 17.2301 12.5725C17.7786 12.3453 18.277 12.0123 18.6968 11.5925C19.1166 11.1727 19.4496 10.6744 19.6767 10.1259C19.9039 9.57739 20.0209 8.98952 20.0209 8.39583C20.0209 7.80215 19.9039 7.21428 19.6767 6.66579C19.4496 6.11729 19.1166 5.61892 18.6968 5.19912C18.277 4.77932 17.7786 4.44632 17.2301 4.21913C16.6816 3.99193 16.0937 3.875 15.5 3.875C14.301 3.875 13.1512 4.3513 12.3033 5.19912C11.4555 6.04694 10.9792 7.19683 10.9792 8.39583C10.9792 9.59483 11.4555 10.7447 12.3033 11.5925C13.1512 12.4404 14.301 12.9167 15.5 12.9167ZM7.75004 25.8333V27.125H23.25V25.8333C23.25 23.4263 23.25 22.2225 22.8567 21.2725C22.3322 20.0066 21.3263 19.0009 20.0603 18.4766C19.1115 18.0833 17.9077 18.0833 15.5 18.0833C13.0924 18.0833 11.8892 18.0833 10.9398 18.4766C10.3129 18.7363 9.74325 19.1169 9.26343 19.5967C8.78361 20.0765 8.403 20.6462 8.14335 21.2731C7.75004 22.2225 7.75004 23.4263 7.75004 25.8333Z" stroke="#3B6CB4" stroke-width="2.58333" stroke-linecap="round" stroke-linejoin="round"/>
</svg>
